<svg xmlns="http://www.w3.org/2000/svg" height="683" viewBox="1 0 511 512" width="683">
<path d="M350.96 411.023C315.914 471.395 250.566 512 175.73 512S35.547 471.395.5 411.023c25.64-44.16 67.488-77.746 117.4-92.598 18.32-5.457 37.73-8.383 57.82-8.383 64.27 0 121.527 29.945 158.62 76.637a202.91 202.91 0 0 1 16.609 24.344zm0 0" fill="#adc165"/>
<path d="M334.352 386.68c-57.172 16.984-121.246 8.652-173.89-28.223-16.465-11.527-30.68-25.05-42.55-40.03 18.32-5.457 37.73-8.383 57.82-8.383 64.27 0 121.527 29.945 158.62 76.637zm77.172 32.18H85.195a7.84 7.84 0 0 1-7.84-7.84 7.84 7.84 0 0 1 7.84-7.836h326.328a7.84 7.84 0 0 1 7.84 7.84 7.84 7.84 0 0 1-7.84 7.836zm0 0" fill="#99aa52"/>
<path d="M374.32 337.773c-1.086 10.242-2.97 20.414-5.62 30.426-67.48 17.906-142.39.406-195.31-52.512-52.922-52.9-70.418-127.828-52.512-195.31 51.11-13.555 106.496-6.812 153.34 20.258 15 8.664 29.133 19.418 41.97 32.254 45.066 45.07 64.445 106.1 58.133 164.883zm0 0" fill="#ffc73b"/>
<path d="M374.32 337.773c-51.195-29.6-89.03-81.246-98.824-144.207-2.793-17.937-3.137-35.695-1.277-52.93 15 8.664 29.133 19.418 41.97 32.254 45.066 45.07 64.445 106.1 58.133 164.883zm37.203 81.086c-2.008 0-4.012-.762-5.543-2.293l-230.75-230.75a7.84 7.84 0 0 1 11.086-11.086l230.75 230.75c3.06 3.063 3.06 8.023 0 11.086-1.53 1.53-3.54 2.293-5.543 2.293zm0 0" fill="#efb025"/>
<path d="M310.543 175.23c0 74.84 40.605 140.184 100.98 175.234C471.895 315.418 512.5 250.07 512.5 175.23S471.898 35.047 411.523 0c-60.375 35.047-100.98 100.395-100.98 175.23zm0 0" fill="#ff903e"/>
<path d="M411.523 418.86a7.84 7.84 0 0 1-7.84-7.836V84.69c0-4.328 3.512-7.84 7.84-7.84s7.84 3.512 7.84 7.84v326.332a7.84 7.84 0 0 1-7.84 7.836zm0 0" fill="#e87425"/>
</svg>