<?xml version="1.0" encoding="iso-8859-1"?>
<!-- Generator: Adobe Illustrator 19.0.0, SVG Export Plug-In . SVG Version: 6.00 Build 0)  -->
<svg version="1.1" id="Layer_1" xmlns="http://www.w3.org/2000/svg" xmlns:xlink="http://www.w3.org/1999/xlink" x="0px" y="0px"
	 viewBox="0 0 489.3 489.3" style="enable-background:new 0 0 489.3 489.3;" xml:space="preserve">
<g>
	<g>
		<path id="XMLID_1866_" style="fill:#3C92CA;" d="M480.2,347.706v-24.8c0-5.2-2.3-10.2-6.4-13.5c-22.4-18.4-46.5-30.6-51.5-33
			c-0.6-0.3-0.9-0.8-0.9-1.5v-34.9c4.4-2.9,7.3-7.9,7.3-13.6v-36.2c0-18-14.6-32.6-32.6-32.6h-3.9h-3.9c-18,0-32.6,14.6-32.6,32.6
			v36.2c0,5.7,2.9,10.6,7.3,13.6v34.9c0,0.6-0.3,1.2-0.9,1.5c-4.9,2.4-29.1,14.6-51.5,33c-4,3.3-6.4,8.3-6.4,13.5v24.8"/>
		<path d="M103.2,109.606c36.1-36.9,84.4-57.6,136-58.2c51.1-0.6,99.5,18.6,136.2,54l-20.4,0.2c-5,0.1-9,4.2-9,9.2
			c0.1,5,4.1,9,9.1,9h0.1l42.3-0.5c5-0.1,9-4.2,9-9.2l-0.5-42.3c-0.1-5-4.2-8.9-9.2-9c-5,0.1-9,4.2-9,9.2l0.2,20.5
			c-40.1-38.8-93-59.8-149-59.2c-56.5,0.6-109.3,23.2-148.7,63.6c-3.5,3.6-3.4,9.3,0.1,12.8
			C93.9,113.306,99.7,113.206,103.2,109.606z"/>
		<path d="M94.9,417.306l-0.2-20.5c39.7,38.3,91.6,59.2,146.7,59.2c0.8,0,1.7,0,2.5,0c56.5-0.6,109.3-23.2,148.7-63.6
			c3.5-3.6,3.4-9.3-0.1-12.8c-3.6-3.5-9.3-3.4-12.8,0.1c-36.1,36.9-84.4,57.6-136,58.2c-51.2,0.6-99.5-18.6-136.2-54l20.4-0.2
			c5-0.1,9-4.2,9-9.2c-0.1-5-4.1-9-9.1-9h-0.1l-42.3,0.5c-2.4,0-4.7,1-6.4,2.7c-1.7,1.7-2.6,4-2.6,6.4l0.5,42.3c0.1,5,4.1,9,9.1,9
			h0.1C91,426.406,95,422.306,94.9,417.306z"/>
		<path d="M76.6,240.006c0-3-1.5-5.9-4-7.5c-2-1.4-3.2-3.6-3.2-6v-36.2c0-13,10.5-23.5,23.5-23.5h7.8c13,0,23.5,10.5,23.5,23.5v36.2
			c0,2.4-1.2,4.7-3.2,6c-2.5,1.7-4,4.5-4,7.5v34.9c0,4,2.3,7.8,6,9.6c4.5,2.2,28,14.1,49.7,31.9c1.9,1.6,3.1,4,3.1,6.5v24.8
			c0,5,4.1,9.1,9.1,9.1s9.1-4.1,9.1-9.1v-24.8c0-8-3.5-15.5-9.7-20.5c-19.2-15.8-39.8-27.2-49.1-32v-26.1c4.6-4.7,7.3-11,7.3-17.8
			v-36.2c0-23-18.7-41.6-41.6-41.6h-7.8c-23,0-41.6,18.7-41.6,41.6v36.2c0,6.7,2.7,13.1,7.3,17.8v26.1c-9.2,4.8-29.8,16.2-49.1,32
			c-6.2,5.1-9.7,12.5-9.7,20.5v24.8c0,5,4.1,9.1,9.1,9.1s9.1-4.1,9.1-9.1v-24.8c0-2.6,1.1-4.9,3.1-6.5
			c21.7-17.8,45.2-29.7,49.7-31.9c3.6-1.8,6-5.5,6-9.6v-34.9L76.6,240.006L76.6,240.006z"/>
		<path d="M480.2,356.806c5,0,9.1-4.1,9.1-9.1v-24.8c0-8-3.5-15.5-9.7-20.5c-19.2-15.8-39.8-27.2-49.1-32v-26.1
			c4.6-4.7,7.3-11,7.3-17.8v-36.2c0-23-18.7-41.6-41.6-41.6h-7.8c-23,0-41.6,18.7-41.6,41.6v36.2c0,6.7,2.7,13.1,7.3,17.8v26.1
			c-9.2,4.8-29.8,16.2-49.1,32c-6.2,5.1-9.7,12.5-9.7,20.5v24.8c0,5,4.1,9.1,9.1,9.1s9.1-4.1,9.1-9.1v-24.8c0-2.6,1.1-4.9,3.1-6.5
			c21.7-17.8,45.2-29.7,49.7-31.9c3.6-1.8,6-5.5,6-9.6v-34.9c0-3-1.5-5.9-4-7.5c-2-1.4-3.2-3.6-3.2-6v-36.2
			c0-13,10.5-23.5,23.5-23.5h7.8c13,0,23.5,10.5,23.5,23.5v36.2c0,2.4-1.2,4.7-3.2,6c-2.5,1.7-4,4.5-4,7.5v34.9c0,4,2.3,7.8,6,9.6
			c4.5,2.2,28,14.1,49.7,31.9c1.9,1.6,3.1,4,3.1,6.5v24.8C471.2,352.706,475.2,356.806,480.2,356.806z"/>
	</g>
</g>
<g>
</g>
<g>
</g>
<g>
</g>
<g>
</g>
<g>
</g>
<g>
</g>
<g>
</g>
<g>
</g>
<g>
</g>
<g>
</g>
<g>
</g>
<g>
</g>
<g>
</g>
<g>
</g>
<g>
</g>
</svg>
