<?xml version="1.0" encoding="iso-8859-1"?>
<svg xmlns="http://www.w3.org/2000/svg" width="96" height="96" viewBox="0 0 48 48" class="feature-icon">
<g >
  <path
    d="M46 20.8c-.1-.8-.3-1.6-1.2-2.7a3 3 0 0 0-.8-.8l-.9-.7-2-1.4c-.7-.4-1.5-.9-2.3-1.2-.7-.4-2.8-1.3-2.8-3 0-1.1.8-1 1-1v.1c-.1 1.7 1 2.8 2.7 2.9 1.7.1 3.1-1.1 3.3-2.8v-.1-.2-.5c0-.5-.1-4.4-5.6-4.4a5.8 5.8 0 0 0-4.6 2.6c-.4.6-.6 1.2-.7 1.8-.3 1.2-.1 2.6.5 3.7.2.3.3.6.6.8.1.1.4.5.7.6l1.5.9 2.7.8 2.3.6 2.1.9.9.5.8.5c.9.8 1.4 1.4 1.6 2.1l.2.8v-.8z"
    fill="#40c4ff" />
  <path
    d="M19 28c-3.9 0-8-4-8-4s4.1-4 8-4c3.9 0 8 4 8 4s-4.1 4-8 4zm2 11.2V39a2 2 0 0 0-4 0v.2c-1.7.4-5 1.3-5 2.8h14c0-1.4-3.3-2.4-5-2.8z"
    fill="#ff9800" />
  <path
    d="M21 18a2 2 0 0 1-4 0 2 2 0 0 1 4 0zm27 3S34 37 19 37c-3 0-5.3-.9-7-2.1C9 34.4 0 32.2 0 22v-2c0-.6.4-1 1-1 .3 0 .5.1.7.3C3.8 21.3 7.5 24 9 24h24c3.4 0 11-3 11-3zM8.1 29.7c-.6-1.4-.9-2.7-1.1-3.8v-.4c-1.7-.7-3.6-2.2-5-3.3.1 4.6 3 6.6 6.1 7.5z"
    fill="#ffc107" />
</g>
</svg>
