<svg height="512pt" viewBox="0 0 512 512" width="512pt" xmlns="http://www.w3.org/2000/svg"><path d="m347.652344 406.414062c-34.003906 58.578126-97.410156 97.980469-170.023438 97.980469-72.613281 0-136.019531-39.402343-170.023437-97.980469 24.878906-42.847656 65.484375-75.433593 113.921875-89.84375 17.777344-5.292968 36.609375-8.132812 56.101562-8.132812 62.363282 0 117.917969 29.054688 153.910156 74.359375 5.921876 7.453125 11.308594 15.34375 16.113282 23.617187zm0 0" fill="#adc165"/><path d="m331.539062 382.796875c-55.476562 16.480469-117.644531 8.394531-168.726562-27.382813-15.972656-11.1875-29.765625-24.308593-41.285156-38.84375 17.777344-5.292968 36.609375-8.132812 56.101562-8.132812 62.363282 0 117.917969 29.054688 153.910156 74.359375zm0 0" fill="#99aa52"/><path d="m370.320312 335.34375c-1.054687 9.9375-2.882812 19.804688-5.457031 29.519531-65.472656 17.375-138.160156.398438-189.503906-50.949219-51.347656-51.335937-68.324219-124.03125-50.953125-189.503906 49.59375-13.15625 103.332031-6.613281 148.789062 19.652344 14.550782 8.40625 28.261719 18.84375 40.71875 31.296875 43.726563 43.730469 62.53125 102.9375 56.40625 159.984375zm0 0" fill="#ffc73b"/><path d="m370.320312 335.34375c-49.675781-28.710938-86.386718-78.832031-95.890624-139.925781-2.707032-17.402344-3.042969-34.632813-1.234376-51.355469 14.550782 8.40625 28.261719 18.84375 40.71875 31.296875 43.726563 43.730469 62.53125 102.9375 56.40625 159.984375zm0 0" fill="#efb025"/><path d="m308.4375 177.632812c0 72.613282 39.398438 136.015626 97.976562 170.023438 58.582032-34.007812 97.976563-97.410156 97.976563-170.023438 0-72.613281-39.394531-136.019531-97.976563-170.027343-58.578124 34.007812-97.976562 97.414062-97.976562 170.027343zm0 0" fill="#ff903e"/><path d="m483.925781 74.285156c-17.820312-30.285156-43.304687-55.617187-73.691406-73.257812-2.363281-1.371094-5.277344-1.371094-7.636719 0-30.390625 17.640625-55.871094 42.972656-73.695312 73.257812-14.484375 24.609375-23.554688 52.046875-26.753906 80.398438-23.242188-18.53125-50.363282-31.855469-79.269532-38.800782-32.949218-7.917968-67.675781-7.511718-100.421875 1.179688-2.636719.699219-4.699219 2.761719-5.398437 5.398438-9.015625 33.964843-9.121094 69.894531-.304688 103.910156 7.160156 27.644531 20.148438 53.460937 37.9375 75.773437-29.542968 3.328125-58.144531 13.078125-83.5 28.609375-3.582031 2.195313-4.707031 6.875-2.511718 10.457032 1.433593 2.34375 3.929687 3.636718 6.492187 3.636718 1.355469 0 2.726563-.363281 3.964844-1.121094 26.519531-16.246093 56.882812-25.660156 88.007812-27.367187.941407.980469 1.875 1.972656 2.835938 2.9375 25.742187 25.742187 57.875 44.144531 92.925781 53.226563 16.8125 4.359374 34.089844 6.535156 51.371094 6.535156 1.363281 0 2.726562-.039063 4.089844-.066406 5.601562 6.257812 10.792968 12.882812 15.511718 19.816406h-244.097656c-4.199219 0-7.605469 3.40625-7.605469 7.605468 0 4.199219 3.40625 7.605469 7.605469 7.605469h244.074219c-15.722657 23.101563-36.453125 42.585938-60.597657 56.796875-28.867187 16.988282-61.933593 25.96875-95.625 25.96875-33.691406 0-66.765624-8.980468-95.632812-25.96875-26.757812-15.746094-49.339844-37.957031-65.539062-64.40625 10.34375-16.902344 23.222656-32.015625 38.332031-44.964844 3.1875-2.734374 3.558593-7.535156.824219-10.722656-2.734376-3.191406-7.535157-3.558594-10.726563-.824218-17.535156 15.03125-32.292969 32.761718-43.863281 52.695312-1.371094 2.363281-1.371094 5.277344 0 7.636719 17.640625 30.390625 42.972656 55.875 73.253906 73.695312 31.207031 18.367188 66.945312 28.074219 103.351562 28.074219 36.402344 0 72.136719-9.707031 103.34375-28.074219 29.011719-17.074219 53.457032-41.191406 70.96875-69.90625h54.46875c2.019532 0 3.953126-.800781 5.378907-2.226562s2.230469-3.359375 2.230469-5.378907v-54.4375c16.765624-10.222656 31.949218-22.78125 45.183593-37.382812 2.820313-3.113281 2.582031-7.925781-.53125-10.746094-3.113281-2.820312-7.921875-2.582031-10.742187.53125-10.128906 11.175782-21.507813 21.039063-33.910156 29.476563v-244.074219c0-4.199219-3.40625-7.605469-7.609376-7.605469-4.199218 0-7.605468 3.40625-7.605468 7.605469v244.078125c-23.101563-15.722656-42.585938-36.449219-56.792969-60.597656-16.992187-28.867188-25.972656-61.9375-25.972656-95.628907 0-33.695312 8.980469-66.761718 25.972656-95.632812 15.746094-26.753906 37.949219-49.335938 64.398437-65.539062 26.449219 16.203124 48.65625 38.78125 64.402344 65.539062 16.988282 28.871094 25.96875 61.9375 25.96875 95.632812 0 37.308594-10.863281 73.386719-31.414062 104.332032-2.324219 3.5-1.371094 8.222656 2.128906 10.546875 3.496094 2.324219 8.21875 1.371093 10.542969-2.128907 22.210937-33.445312 33.953125-72.4375 33.953125-112.75.003906-36.40625-9.707032-72.140624-28.070313-103.347656zm-146.707031 303.460938c8.507812-.953125 16.960938-2.441406 25.308594-4.460938l25.527344 25.523438h-36.09375c-4.457032-7.3125-9.386719-14.347656-14.742188-21.0625zm61.589844 10.308594-25.515625-25.519532c2.015625-8.328125 3.503906-16.792968 4.464843-25.320312 6.691407 5.339844 13.71875 10.265625 21.050782 14.738281zm-69.902344-107.078126c9.5 16.148438 21.199219 30.871094 34.640625 43.785157-.460937 8.382812-1.476563 16.742187-3.042969 24.984375l-172.605468-172.601563c-2.96875-2.972656-7.785157-2.972656-10.753907 0-2.972656 2.96875-2.972656 7.785157 0 10.753907l172.589844 172.59375c-27.453125 5.214843-55.886719 4.335937-83.007813-2.691407-32.429687-8.402343-62.160156-25.4375-85.984374-49.261719-23.824219-23.824218-40.859376-53.558593-49.261719-85.984374-7.785157-30.050782-8.050781-61.722657-.808594-91.878907 29.039063-6.972656 59.59375-6.984375 88.65625 0 30.234375 7.265625 58.359375 22.070313 81.574219 42.863281-.027344 1.367188-.070313 2.726563-.070313 4.09375 0 36.402344 9.707031 72.140626 28.074219 103.34375zm0 0"/></svg>