<?xml version="1.0" encoding="iso-8859-1"?>
<svg xmlns="http://www.w3.org/2000/svg" width="96" height="96" viewBox="0 0 48 48" class="feature-icon">
  <g >
    <path
      d="M42 9C42 8 42 7 41 6c-4-3-10-4-17-4S11 3 7 6c-1 .9-1 1.9-1 3l1 16.6c1 5.7 5 17.5 17 20.4 0 0 13-2 17-20.4z"
      fill="#ffe0b2" />
    <path d="M21.6 17l1 9.8-2.3-.8.4-8.3zM31.2 20.2c-1-.8-3-2.2-.7-5.4-1.9.4-4 2.5-4 4.4a4 4 0 0 0 4.7 4z"
      fill="#ffcc80" />
    <path
      d="M23.1 39c-5.6-.3-7-4.5-7-4.5l5.1-.3 2.3-4.4S21.2 31 16 31s-7.9-5.6-4.8-9.4c.9 1 2 1.6 3.2 1.6h.6v-3c-.5-.4-.7-1-.8-1.5a2.8 2.8 0 0 1-.2-5v-.1c-1 .2-2.2 1-3 2v-1.1l1.1-11S7.3 4.7 6.3 6.8c-.1.3-.3 1.3-.2 3 .2 4.6.7 12.6 1 15.7 0 1.8.7 3.3 1 4.2C12.6 44 24 46 24 46z"
      fill="#ffcc80" />
    <path
      d="M32 12c-3.4 0-5.2 3-5.6 3.4a1.5 1.5 0 1 0 2.2 2.2C29 17 30.3 14 33 14c1.4 0 3 .6 5 2-1.9-3.1-4-4-6-4zM16 12c-2 0-4.1.9-6 4 2-1.4 3.6-2 5-2 2.7 0 4 3.1 4.4 3.6a1.5 1.5 0 1 0 2.2-2.2c-.4-.3-2.2-3.4-5.6-3.4zM16 18.5c-1.6 0-3 .6-4 1.5 1 1 2.4 1.5 4 1.5s3-.6 4-1.5c-1-.9-2.4-1.5-4-1.5zM32 18.5c-1.6 0-3 .6-4 1.5 1 1 2.4 1.5 4 1.5s3-.6 4-1.5c-1-.9-2.4-1.5-4-1.5zM10 27l5 8h7l2-2 2 2h7l5-8-6 6h-4l-3-4h-2l-3 4h-4zM22 38v7.4l2 .6s.8-.1 2-.6V38z"
      fill="#424242" />
  </g>
</svg>
