<?xml version="1.0" encoding="iso-8859-1"?>
<!-- Generator: Adobe Illustrator 19.1.0, SVG Export Plug-In . SVG Version: 6.00 Build 0)  -->
<svg version="1.1" id="Capa_1" xmlns="http://www.w3.org/2000/svg" xmlns:xlink="http://www.w3.org/1999/xlink" x="0px" y="0px"
	 viewBox="0 0 511.737 511.737" style="enable-background:new 0 0 511.737 511.737;" xml:space="preserve">
<g>
	<g>
		<path style="fill:#74D24F;" d="M255.868,39.868c-138.961,0-251.351,108.738-255.859,247.558
			c-0.141,4.316,1.453,8.414,4.484,11.539c3.016,3.113,7.234,4.902,11.562,4.902h63.82c4.422,0,8-3.582,8-8h336c0,4.418,3.578,8,8,8
			h63.812c4.336,0,8.555-1.789,11.57-4.91c3.023-3.129,4.617-7.23,4.469-11.539C507.227,148.607,394.837,39.868,255.868,39.868z"/>
	</g>
	<g>
		<path style="fill:#FFD200;" d="M255.868,39.868c-0.042,0-0.083,0.003-0.125,0.003v255.997L384.496,74.128
			C346.74,52.325,302.834,39.868,255.868,39.868z"/>
	</g>
	<g>
		<path style="fill:#FF4F19;" d="M431.876,303.868h63.812c4.336,0,8.555-1.789,11.57-4.91c3.023-3.129,4.617-7.23,4.469-11.539
			c-2.979-91.895-53.266-170.574-127.221-213.286L255.871,295.868h168.004C423.876,300.286,427.454,303.868,431.876,303.868z"/>
	</g>
	<g>
		<path style="fill:#FF9600;" d="M384.506,74.133L255.871,295.868l222.045-127.907C455.557,128.984,423.347,96.565,384.506,74.133z"
			/>
	</g>
	<g>
		<path style="fill:#8B8996;" d="M255.868,111.868c-101.461,0-184,82.543-184,184c0,58.359,28.125,113.848,75.242,148.43
			c1.375,1.008,3.031,1.551,4.734,1.551l208.023,0.02c1.703,0,3.359-0.543,4.734-1.551c47.125-34.57,75.266-90.062,75.266-148.449
			C439.868,194.411,357.329,111.868,255.868,111.868z"/>
	</g>
	<g>
		<path style="fill:#FFFFFF;" d="M413.524,138.212c-2.828-2.836-7.328-3.129-10.516-0.699l-144,110.117
			c-1.836,1.402-2.969,3.523-3.125,5.824c-0.148,2.301,0.695,4.559,2.328,6.188l33.883,33.883c1.508,1.504,3.539,2.344,5.656,2.344
			c0.172,0,0.352-0.004,0.531-0.02c2.297-0.152,4.422-1.289,5.82-3.121l110.117-144C416.657,145.544,416.36,141.048,413.524,138.212
			z"/>
	</g>
	<g>
		<path style="fill:#FFFFFF;" d="M357.871,463.868h-204c-1.105,0-2-0.895-2-2v-60c0-1.105,0.895-2,2-2h204c1.105,0,2,0.895,2,2v60
			C359.871,462.973,358.976,463.868,357.871,463.868z"/>
	</g>
	<g>
		<path style="fill:#5C546A;" d="M343.868,471.868h-176c-13.234,0-24-10.766-24-24v-32c0-13.234,10.766-24,24-24h176
			c13.234,0,24,10.766,24,24v32C367.868,461.103,357.102,471.868,343.868,471.868z M167.868,407.868c-4.414,0-8,3.59-8,8v32
			c0,4.41,3.586,8,8,8h176c4.414,0,8-3.59,8-8v-32c0-4.41-3.586-8-8-8H167.868z"/>
	</g>
	<g>
		<circle style="fill:#5C546A;" cx="255.871" cy="295.868" r="48"/>
	</g>
	<g>
		<circle style="fill:#B9BBC1;" cx="255.871" cy="295.868" r="24"/>
	</g>
	<g>
		<g>
			<path style="fill:#5C546A;" d="M143.876,109.88c1.359,0,2.734-0.344,3.992-1.07c3.828-2.211,5.141-7.102,2.93-10.93
				L134.69,69.976c-4.717,2.518-9.32,5.212-13.853,8.011l16.101,27.894C138.423,108.446,141.11,109.88,143.876,109.88z"/>
		</g>
		<g>
			<path style="fill:#5C546A;" d="M255.868,79.868c4.422,0,8-3.582,8-8V40.064c-2.663-0.081-5.317-0.195-8-0.195
				c-2.683,0-5.337,0.115-8,0.195v31.805C247.868,76.286,251.446,79.868,255.868,79.868z"/>
		</g>
		<g>
			<path style="fill:#5C546A;" d="M61.876,191.868c2.766,0,5.453-1.434,6.937-4c2.211-3.828,0.898-8.719-2.93-10.93l-27.909-16.113
				c-2.797,4.531-5.442,9.165-7.959,13.883l27.869,16.089C59.141,191.525,60.516,191.868,61.876,191.868z"/>
		</g>
		<g>
			<path style="fill:#5C546A;" d="M377.049,69.975L360.938,97.88c-2.211,3.828-0.898,8.719,2.93,10.93
				c1.258,0.727,2.633,1.07,3.992,1.07c2.766,0,5.453-1.434,6.938-4l16.105-27.895C386.37,75.187,381.766,72.492,377.049,69.975z"/>
		</g>
		<g>
			<path style="fill:#5C546A;" d="M473.768,160.826l-27.908,16.112c-3.828,2.211-5.141,7.102-2.93,10.93
				c1.484,2.566,4.172,4,6.938,4c1.359,0,2.734-0.344,3.992-1.07l27.868-16.089C479.211,169.991,476.565,165.358,473.768,160.826z"
				/>
		</g>
	</g>
</g>
<g>
</g>
<g>
</g>
<g>
</g>
<g>
</g>
<g>
</g>
<g>
</g>
<g>
</g>
<g>
</g>
<g>
</g>
<g>
</g>
<g>
</g>
<g>
</g>
<g>
</g>
<g>
</g>
<g>
</g>
</svg>
