<?xml version="1.0" encoding="iso-8859-1"?>
<svg xmlns="http://www.w3.org/2000/svg" width="96" height="96" viewBox="0 0 48 48" class="feature-icon">
  <g>
    <path
      d="M25.6 34.4l.1-1.4-.1-1.4 2.8-2c.3-.2.4-.6.2-.9l-2.7-4.6c-.2-.3-.5-.4-.8-.3L22 25.3c-.7-.6-1.5-1-2.4-1.4l-.3-3.4c0-.3-.3-.6-.6-.6h-5.3c-.3 0-.6.3-.6.6l-.4 3.5c-.9.3-1.6.8-2.4 1.4L6.9 24c-.3-.1-.7 0-.8.3l-2.7 4.6c-.2.3-.1.7.2.9l2.8 2-.1 1.4.1 1.4-2.8 2c-.3.2-.4.6-.2.9l2.7 4.6c.2.3.5.4.8.3L10 41c.7.6 1.5 1 2.4 1.4l.3 3.4c0 .3.3.6.6.6h5.3c.3 0 .6-.3.6-.6l.3-3.4c.9-.3 1.6-.8 2.4-1.4l3.1 1.4c.3.1.7 0 .8-.3l2.7-4.6c.2-.3.1-.7-.2-.9zM16 38a5 5 0 0 1-5-5 5 5 0 0 1 5-5 5 5 0 0 1 5 5 5 5 0 0 1-5 5z"
      fill="#e65100" />
    <path
      d="M41.9 15.3L42 14l-.1-1.3 2.5-1.8c.3-.2.3-.5.2-.8l-2.5-4.3c-.2-.3-.5-.4-.8-.2l-2.9 1.3-2.2-1.3-.3-3.1c.1-.3-.1-.5-.4-.5h-4.9c-.3 0-.6.2-.6.5l-.3 3.1a7 7 0 0 0-2.2 1.3l-2.9-1.3a.8.8 0 0 0-.8.2l-2.5 4.3c-.2.3-.1.6.2.8l2.5 1.8V14l.1 1.3-2.5 1.8c-.3.2-.3.5-.2.8l2.5 4.3c.2.3.5.4.8.2l2.9-1.3 2.2 1.3.3 3.1c0 .3.3.5.6.5h4.9c.3 0 .6-.2.6-.5l.3-3.1a7 7 0 0 0 2.2-1.3l2.9 1.3c.3.1.6 0 .8-.2l2.5-4.3c.2-.3.1-.6-.2-.8zM33 19a5 5 0 0 1-5-5 5 5 0 0 1 5-5 5 5 0 0 1 5 5 5 5 0 0 1-5 5z"
      fill="#ffa000" />
  </g>
</svg>