<?xml version="1.0" encoding="iso-8859-1"?>
<svg xmlns="http://www.w3.org/2000/svg" width="96" height="96" viewBox="0 0 48 48">
<g id="surface1">
  <path d="M27.8 39.7l-.4-.1-.6-.5-3.7-8.6-4.5 4.2c-.1.2-.3.3-.6.3l-.4-.1c-.3-.1-.6-.5-.6-.9V12c0-.4.2-.8.6-.9l.4-.1c.2 0 .5.1.7.3l16 15c.3.3.4.7.3 1.1-.1.4-.5.6-.9.7l-6.3.6 3.9 8.5c.1.2.1.5 0 .8l-.5.6-2.9 1.3c-.2-.2-.4-.2-.5-.2z" fill="#e0e0e0"/>
  <path d="M18 12l16 15-7.7.7 4.5 9.8-2.9 1.3-4.3-9.9L18 34V12m0-2l-.8.2A2 2 0 0 0 16 12v22a2 2 0 0 0 1.2 1.8c.3.2.6.2.8.2.5 0 1-.2 1.4-.5l3.4-3.2 3.1 7.3c.2.5.6.9 1.1 1.1l.7.1.8-.2 2.9-1.3a2 2 0 0 0 1.1-1.1 2 2 0 0 0 0-1.5l-3.3-7.2 4.9-.4c.8-.1 1.5-.6 1.7-1.3.3-.7.1-1.6-.5-2.1l-16-15c-.3-.5-.8-.7-1.3-.7z" fill="#212121"/>
</g>
</svg>