<?xml version="1.0" encoding="iso-8859-1"?>
<svg xmlns="http://www.w3.org/2000/svg" width="96" height="96" viewBox="0 0 48 48">
<path fill="#e74c16" d="M37.2 35l-9.8 5.5H16L6.6 14l26-6.7z"/>
<path fill="#f76418" d="M20.3 13l6.5 25.3 7.9-4.4-4-23.5z"/>
<path d="M17.6 18.3L16 24l4.2 4.2 6.5-1.7.4 1.5a8.8 8.8 0 0 1-15-.6l-8 2L2.9 25l8-2a8.9 8.9 0 0 1 12.9-8l.4 1.6-6.6 1.7zm-16.4 12l1.7-.5-1.1-4.5-1.8.5 1.2 4.4z" fill="#efedee"/>
<g fill="#bbb8c2">
  <path d="M23 30c-4 1-8-.8-10-4.2L5 28 4 24.7 3 25l1.2 4.5 8-2.1a8.9 8.9 0 0 0 15 .6v-.3c-1.1 1.1-2.5 2-4.1 2.4zM18.5 16.7l-.4 1.4 6-1.5-.3-1.3zM2 28.7l-.8-3.2-1.2.3 1.2 4.4 1.7-.4-.3-1.3z"/>
</g>
<path d="M21.3 24l-.4-1.5a8.8 8.8 0 0 1 15 .7l8-2 1.2 4.3-8 2.1a8.9 8.9 0 0 1-12.9 8l-.4-1.6 6.6-1.7 1.6-5.7-4.2-4.2-6.5 1.7zm25.5-3.6l-1.7.4 1.1 4.5 1.8-.5-1.2-4.4z" fill="#efedee"/>
<g fill="#bbb8c2">
  <path d="M28.9 35.3c4-1 6.6-4.6 6.6-8.6l8-2-.8-3.3 1.2-.3 1.2 4.4-8 2.1a8.9 8.9 0 0 1-12.9 8v-.4c1.4.4 3 .5 4.7 0zM26.3 21.4l1 1-6 1.7-.4-1.3zM46.5 23.9l-.9-3.2 1.2-.3 1.2 4.4-1.8.5-.3-1.3z"/>
</g>
</svg>