<svg width="55" height="18" viewBox="0 0 55 18" fill="none" xmlns="http://www.w3.org/2000/svg">
<path d="M18.4641 9.40333C18.4641 10.8937 17.884 11.806 16.5233 11.7837C15.274 11.7615 14.6271 10.8493 14.6271 9.3814V3.7529H11.549V9.60335C11.549 12.4289 13.3112 14.4311 16.5233 14.4534C19.4679 14.4756 21.5424 12.3177 21.5424 9.62588V3.7529H18.4641V9.40333Z" fill="#FF00BD"/>
<path d="M48.364 3.50721C45.0402 3.50721 42.6995 5.86538 42.6995 8.97985C42.6995 12.0943 45.0418 14.4525 48.364 14.4525C51.6863 14.4525 54.0285 12.0943 54.0285 8.97985C54.0285 5.86538 51.6875 3.50721 48.364 3.50721ZM48.364 11.8051C46.8247 11.8051 45.733 10.6484 45.733 8.97985C45.733 7.31133 46.8259 6.1543 48.364 6.1543C49.9021 6.1543 50.9951 7.31133 50.9951 8.97985C50.9951 10.6484 49.903 11.8051 48.364 11.8051Z" fill="#FF00BD"/>
<path d="M29.2222 3.50717C25.8984 3.50717 23.5577 5.86534 23.5577 8.97981C23.5577 9.02118 23.5626 9.06097 23.5632 9.10326H23.5577V17.95H26.5911V13.8795C27.4145 14.2632 28.3134 14.4587 29.2222 14.4518C32.546 14.4518 34.8866 12.0936 34.8866 8.97917C34.8866 5.8647 32.546 3.50717 29.2222 3.50717ZM29.2222 11.805C27.6828 11.805 26.5911 10.6483 26.5911 8.97981C26.5911 7.31129 27.6841 6.15426 29.2222 6.15426C30.7602 6.15426 31.8532 7.31129 31.8532 8.97981C31.8532 10.6483 30.7615 11.805 29.2222 11.805Z" fill="#FF00BD"/>
<path d="M0 6.39722H6.06565L0 11.1376V14.2076H9.82372V11.5624H3.74352L9.82372 6.80995V3.75197H0V6.39722Z" fill="#FF00BD"/>
<path d="M41.7882 14.2076H40.761C39.6539 14.2064 38.5924 13.7672 37.8096 12.9865C37.0267 12.2057 36.5863 11.1471 36.5851 10.043V0H39.6805V10.043C39.6812 10.3285 39.7953 10.6022 39.9978 10.8042C40.2003 11.0061 40.4747 11.1199 40.761 11.1206H41.7882V14.2076Z" fill="#FF00BD"/>
</svg>
